<svg xmlns="http://www.w3.org/2000/svg" xmlns:xlink="http://www.w3.org/1999/xlink" width="24" height="24"><defs><path id="a" d="M16.313 3.607a6.65 6.65 0 0 0 1.866-.251 9.796 9.796 0 0 0 1.49-.552c.419-.201.745-.385.98-.553L21 2v10.107l-.335.251a6.309 6.309 0 0 1-.937.553c-.402.2-.882.385-1.44.552a6.389 6.389 0 0 1-1.842.251c-.67 0-1.255-.083-1.757-.25a27.313 27.313 0 0 1-1.507-.553c-.502-.201-1.046-.385-1.632-.553-.586-.167-1.303-.25-2.152-.25-.49 0-.931.069-1.322.208-.39.14-.726.305-1.005.494 0 .119-1.071.119-1.071-.027V3.657l.946-.828C7.576 2.276 8.439 2 9.532 2c.849 0 1.552.084 2.11.251.558.168 1.071.352 1.54.553.469.2.94.385 1.415.552.474.167 1.046.251 1.716.251zM3 2.834c0-.46.367-.834.813-.834h.374c.449 0 .813.373.813.834v18.332c0 .46-.367.834-.813.834h-.374A.824.824 0 0 1 3 21.166V2.834z"/></defs><use fill="#B52828" fill-rule="evenodd" xlink:href="#a"/></svg>