<svg xmlns="http://www.w3.org/2000/svg" xmlns:xlink="http://www.w3.org/1999/xlink" width="24" height="24" viewBox="0 0 24 24">
  <defs>
    <path id="share-a" d="M20.9702802,14.2058016 L18.4211335,11.6568686 C17.7350543,10.9707347 16.9018354,10.6274745 15.921391,10.6274745 C14.9245931,10.6274745 14.0751494,10.9869598 13.372416,11.7059303 L12.2939788,10.6274745 C13.0129799,9.92490085 13.372416,9.07123603 13.372416,8.06617963 C13.372416,7.08576138 13.0334112,6.25664887 12.3552297,5.57841286 L9.83072076,3.04175609 C9.15262516,2.34733788 8.31932045,2 7.33080661,2 C6.35040519,2 5.52117815,2.33918239 4.84308255,3.01728963 L3.04160944,4.8064746 C2.34716022,5.48475353 2,6.31386604 2,7.29419844 C2,8.27461669 2.34321132,9.10806449 3.02937642,9.79428429 L5.57835142,12.3432172 C6.26468821,13.0294799 7.09799293,13.3726113 8.07839434,13.3726113 C9.0750206,13.3726113 9.92472186,13.013169 10.6272835,12.2941126 L11.7057208,13.3726113 C10.9867626,14.0753138 10.6272835,14.9289357 10.6272835,15.9339491 C10.6272835,16.9144532 10.9662884,17.7433511 11.6444269,18.4217159 L14.1691505,20.9582439 C14.8473748,21.6526192 15.6803791,22 16.6688929,22 C17.6494231,22 18.4782639,21.6610322 19.156617,20.9827962 L20.9582189,19.1936542 C21.6525822,18.5152894 22,17.6862627 22,16.7058874 C21.9997854,15.7255979 21.6566599,14.8923647 20.9702802,14.2058016 Z M10.6274552,8.96113696 C10.6029462,8.93662758 10.5272732,8.85906461 10.4008224,8.72831928 C10.2742858,8.59757396 10.1864226,8.50975224 10.1374476,8.4647683 C10.0883868,8.41982728 10.0107393,8.35857528 9.90454811,8.28079769 C9.79818522,8.20314888 9.69414017,8.15013821 9.59206957,8.12150816 C9.48991312,8.09292104 9.37754103,8.0786704 9.2549533,8.0786704 C8.92826729,8.0786704 8.65042751,8.19310475 8.42164858,8.42175884 C8.19286965,8.65041293 8.07860896,8.92821455 8.07860896,9.25507786 C8.07860896,9.37753893 8.09285935,9.48991295 8.12144599,9.59207115 C8.15003262,9.6943152 8.20312822,9.79844788 8.28073278,9.90459798 C8.35838026,10.010791 8.41967413,10.0884398 8.46457146,10.1375015 C8.50938294,10.1864773 8.59720315,10.274342 8.72794623,10.4010096 C8.85868931,10.5276342 8.93625094,10.6031369 8.96075991,10.6276892 C8.71562736,10.8808526 8.42151981,11.0074773 8.07848019,11.0074773 C7.74351006,11.0074773 7.46567028,10.8972495 7.24517547,10.6767509 L4.69598585,8.12768916 C4.46733569,7.89890631 4.35294623,7.62110468 4.35294623,7.29424137 C4.35294623,6.97570523 4.46720692,6.7020672 4.69598585,6.47328434 L6.49750189,4.68392768 C6.73456493,4.46330031 7.0121901,4.35320124 7.33093538,4.35320124 C7.65762139,4.35320124 7.93541824,4.46750682 8.16424009,4.69628968 L10.6886632,7.23294645 C10.9174421,7.46172931 11.0317028,7.73948801 11.0317028,8.06626547 C11.0317458,8.40926807 10.8969679,8.70754425 10.6274552,8.96113696 Z M19.3042288,17.5267157 L17.5026269,19.3160294 C17.2737621,19.5282867 16.9961369,19.6346514 16.6691505,19.6346514 C16.3339657,19.6346514 16.056641,19.5245094 15.8360174,19.3038391 L13.3115943,16.7670106 C13.0827725,16.5381419 12.9686405,16.260512 12.9686405,15.9338633 C12.9686405,15.5907319 13.1033325,15.2925416 13.373017,15.0392923 C13.3976976,15.06363 13.473199,15.1414934 13.5998214,15.2719383 C13.7264439,15.4026836 13.8142641,15.4905482 13.8633679,15.5354892 C13.9124287,15.580602 13.9899475,15.641854 14.0960099,15.7195457 C14.2023728,15.7972804 14.306332,15.8504198 14.4085743,15.8789211 C14.5108166,15.9075511 14.6230599,15.9218018 14.7455618,15.9218018 C15.0725482,15.9218018 15.3501734,15.8074103 15.5790382,15.5786704 C15.8075596,15.3499734 15.9221637,15.0721718 15.9221637,14.7455231 C15.9221637,14.6230191 15.9076128,14.5106451 15.8792408,14.4085298 C15.8504825,14.3062857 15.7976015,14.2021101 15.7195677,14.09596 C15.6418344,13.9898958 15.5809268,13.9120753 15.5358148,13.8629707 C15.4908746,13.8142094 15.4030115,13.7263448 15.2723113,13.5994197 C15.1415682,13.4728379 15.0640066,13.3972924 15.0393259,13.3729547 C15.2846302,13.111464 15.5786948,12.9807187 15.9215627,12.9807187 C16.2485063,12.9807187 16.5261314,13.0950243 16.7546958,13.3238501 L19.3037995,15.8727401 C19.5326643,16.1016088 19.6469679,16.3795392 19.6469679,16.7061879 C19.6469679,17.0245094 19.5326643,17.2984908 19.3042288,17.5267157 Z"/>
  </defs>
  <use xlink:href="#share-a"/>
</svg>
